#Comment line ignore any data following # character 
#Hierarchical Translation and Rotation (.htr) file 
[Header]	
#Header keywords are followed by a single value 
FileType HTR		#Single word string
DataType HTRS		#Translation followed by rotation and scale data
FileVersion 1		#integer
NumSegments 84		#integer
NumFrames 2		#integer
DataFrameRate 30		#integer, data frame rate in this file
EulerRotationOrder ZYX
CalibrationUnits mm
RotationUnits Degrees
GlobalAxisofGravity Y
BoneLengthAxis Y
ScaleFactor 1.00
[SegmentNames&Hierarchy]
#CHILD	PARENT
MASTER GLOBAL
root MASTER
chest root
L_mid_tent01 root
R_mid_tent01 root
spine01 root
Bip01_Neck chest
L_humerus chest
R_humerus chest
weapon_bone chest
Bip01_Head Bip01_Neck
eye_left_bone Bip01_Head
eye_right_bone Bip01_Head
L_forearm L_humerus
L_front_hand L_forearm
L_weapon_bone L_forearm
L_front_hand01_01 L_front_hand
L_front_hand02_01 L_front_hand
L_front_hand03_01 L_front_hand
L_front_hand01_02 L_front_hand01_01
L_front_hand02_02 L_front_hand02_01
L_front_hand03_02 L_front_hand03_01
R_forearm R_humerus
R_front_hand R_forearm
R_weapon_bone R_forearm
R_front_hand01_01 R_front_hand
R_front_hand02_01 R_front_hand
R_front_hand03_01 R_front_hand
R_front_hand01_02 R_front_hand01_01
R_front_hand02_02 R_front_hand02_01
R_front_hand03_02 R_front_hand03_01
null_rope01_connect L_mid_tent01
Rope1_Seg01 null_rope01_connect
Rope1_Seg02 Rope1_Seg01
Rope1_Seg03 Rope1_Seg02
Rope1_Seg04 Rope1_Seg03
Rope1_Seg05 Rope1_Seg04
Rope1_Seg06 Rope1_Seg05
Rope1_Seg07 Rope1_Seg06
Rope1_Seg09 Rope1_Seg07
L_mid_hand01 Rope1_Seg09
L_mid_hand02 Rope1_Seg09
L_mid_hand03 Rope1_Seg09
null_rope02_connect R_mid_tent01
Rope2_Seg01 null_rope02_connect
Rope2_Seg02 Rope2_Seg01
Rope2_Seg03 Rope2_Seg02
Rope2_Seg04 Rope2_Seg03
Rope2_Seg05 Rope2_Seg04
Rope2_Seg06 Rope2_Seg05
Rope2_Seg07 Rope2_Seg06
Rope2_Seg09 Rope2_Seg07
R_mid_hand01 Rope2_Seg09
R_mid_hand02 Rope2_Seg09
R_mid_hand03 Rope2_Seg09
spine02 spine01
spine03 spine02
pelvis spine03
null_rope03_connect pelvis
null_rope04_connect pelvis
Rope3_Seg01 null_rope03_connect
Rope3_Seg02 Rope3_Seg01
Rope3_Seg03 Rope3_Seg02
Rope3_Seg04 Rope3_Seg03
Rope3_Seg05 Rope3_Seg04
Rope3_Seg06 Rope3_Seg05
Rope3_Seg07 Rope3_Seg06
Rope3_Seg08 Rope3_Seg07
Rope3_Seg09 Rope3_Seg08
R_rear_hand01 Rope3_Seg09
R_rear_hand02 Rope3_Seg09
R_rear_hand03 Rope3_Seg09
Rope4_Seg01 null_rope04_connect
Rope4_Seg02 Rope4_Seg01
Rope4_Seg03 Rope4_Seg02
Rope4_Seg04 Rope4_Seg03
Rope4_Seg05 Rope4_Seg04
Rope4_Seg06 Rope4_Seg05
Rope4_Seg07 Rope4_Seg06
Rope4_Seg08 Rope4_Seg07
Rope4_Seg09 Rope4_Seg08
L_rear_hand01 Rope4_Seg09
L_rear_hand02 Rope4_Seg09
L_rear_hand03 Rope4_Seg09
[BasePosition]
#SegmentName Tx, Ty, Tz, Rx, Ry, Rz, BoneLength
MASTER 0.000000 0.000000 0.000000 -90.000000 0.000000 0.000000 10.000000 
root 0.000000 0.000000 0.000000 0.000000 0.000000 0.000000 10.000000 
chest 0.000000 0.000000 0.000000 0.000000 0.000000 0.000000 10.000000 
L_mid_tent01 0.000000 0.000000 0.000000 0.000000 0.000000 0.000000 10.000000 
R_mid_tent01 0.000000 0.000000 0.000000 0.000000 0.000000 0.000000 10.000000 
spine01 0.000000 0.000000 0.000000 0.000000 0.000000 0.000000 10.000000 
Bip01_Neck 0.000000 0.000000 0.000000 0.000000 0.000000 0.000000 10.000000 
L_humerus 0.000000 0.000000 0.000000 0.000000 0.000000 0.000000 10.000000 
R_humerus 0.000000 0.000000 0.000000 0.000000 0.000000 0.000000 10.000000 
weapon_bone 0.000000 0.000000 0.000000 0.000000 0.000000 0.000000 10.000000 
Bip01_Head 0.000000 0.000000 0.000000 0.000000 0.000000 0.000000 10.000000 
eye_left_bone 0.000000 0.000000 0.000000 0.000000 0.000000 0.000000 10.000000 
eye_right_bone 0.000000 0.000000 0.000000 0.000000 0.000000 0.000000 10.000000 
L_forearm 0.000000 0.000000 0.000000 0.000000 0.000000 0.000000 10.000000 
L_front_hand 0.000000 0.000000 0.000000 0.000000 0.000000 0.000000 10.000000 
L_weapon_bone 0.000000 0.000000 0.000000 0.000000 0.000000 0.000000 10.000000 
L_front_hand01_01 0.000000 0.000000 0.000000 0.000000 0.000000 0.000000 10.000000 
L_front_hand02_01 0.000000 0.000000 0.000000 0.000000 0.000000 0.000000 10.000000 
L_front_hand03_01 0.000000 0.000000 0.000000 0.000000 0.000000 0.000000 10.000000 
L_front_hand01_02 0.000000 0.000000 0.000000 0.000000 0.000000 0.000000 10.000000 
L_front_hand02_02 0.000000 0.000000 0.000000 0.000000 0.000000 0.000000 10.000000 
L_front_hand03_02 0.000000 0.000000 0.000000 0.000000 0.000000 0.000000 10.000000 
R_forearm 0.000000 0.000000 0.000000 0.000000 0.000000 0.000000 10.000000 
R_front_hand 0.000000 0.000000 0.000000 0.000000 0.000000 0.000000 10.000000 
R_weapon_bone 0.000000 0.000000 0.000000 0.000000 0.000000 0.000000 10.000000 
R_front_hand01_01 0.000000 0.000000 0.000000 0.000000 0.000000 0.000000 10.000000 
R_front_hand02_01 0.000000 0.000000 0.000000 0.000000 0.000000 0.000000 10.000000 
R_front_hand03_01 0.000000 0.000000 0.000000 0.000000 0.000000 0.000000 10.000000 
R_front_hand01_02 0.000000 0.000000 0.000000 0.000000 0.000000 0.000000 10.000000 
R_front_hand02_02 0.000000 0.000000 0.000000 0.000000 0.000000 0.000000 10.000000 
R_front_hand03_02 0.000000 0.000000 0.000000 0.000000 0.000000 0.000000 10.000000 
null_rope01_connect 0.000000 0.000000 0.000000 0.000000 0.000000 0.000000 10.000000 
Rope1_Seg01 0.000000 0.000000 0.000000 0.000000 0.000000 0.000000 10.000000 
Rope1_Seg02 0.000000 0.000000 0.000000 0.000000 0.000000 0.000000 10.000000 
Rope1_Seg03 0.000000 0.000000 0.000000 0.000000 0.000000 0.000000 10.000000 
Rope1_Seg04 0.000000 0.000000 0.000000 0.000000 0.000000 0.000000 10.000000 
Rope1_Seg05 0.000000 0.000000 0.000000 0.000000 0.000000 0.000000 10.000000 
Rope1_Seg06 0.000000 0.000000 0.000000 0.000000 0.000000 0.000000 10.000000 
Rope1_Seg07 0.000000 0.000000 0.000000 0.000000 0.000000 0.000000 10.000000 
Rope1_Seg09 0.000000 0.000000 0.000000 0.000000 0.000000 0.000000 10.000000 
L_mid_hand01 0.000000 0.000000 0.000000 0.000000 0.000000 0.000000 10.000000 
L_mid_hand02 0.000000 0.000000 0.000000 0.000000 0.000000 0.000000 10.000000 
L_mid_hand03 0.000000 0.000000 0.000000 0.000000 0.000000 0.000000 10.000000 
null_rope02_connect 0.000000 0.000000 0.000000 0.000000 0.000000 0.000000 10.000000 
Rope2_Seg01 0.000000 0.000000 0.000000 0.000000 0.000000 0.000000 10.000000 
Rope2_Seg02 0.000000 0.000000 0.000000 0.000000 0.000000 0.000000 10.000000 
Rope2_Seg03 0.000000 0.000000 0.000000 0.000000 0.000000 0.000000 10.000000 
Rope2_Seg04 0.000000 0.000000 0.000000 0.000000 0.000000 0.000000 10.000000 
Rope2_Seg05 0.000000 0.000000 0.000000 0.000000 0.000000 0.000000 10.000000 
Rope2_Seg06 0.000000 0.000000 0.000000 0.000000 0.000000 0.000000 10.000000 
Rope2_Seg07 0.000000 0.000000 0.000000 0.000000 0.000000 0.000000 10.000000 
Rope2_Seg09 0.000000 0.000000 0.000000 0.000000 0.000000 0.000000 10.000000 
R_mid_hand01 0.000000 0.000000 0.000000 0.000000 0.000000 0.000000 10.000000 
R_mid_hand02 0.000000 0.000000 0.000000 0.000000 0.000000 0.000000 10.000000 
R_mid_hand03 0.000000 0.000000 0.000000 0.000000 0.000000 0.000000 10.000000 
spine02 0.000000 0.000000 0.000000 0.000000 0.000000 0.000000 10.000000 
spine03 0.000000 0.000000 0.000000 0.000000 0.000000 0.000000 10.000000 
pelvis 0.000000 0.000000 0.000000 0.000000 0.000000 0.000000 10.000000 
null_rope03_connect 0.000000 0.000000 0.000000 0.000000 0.000000 0.000000 10.000000 
null_rope04_connect 0.000000 0.000000 0.000000 0.000000 0.000000 0.000000 10.000000 
Rope3_Seg01 0.000000 0.000000 0.000000 0.000000 0.000000 0.000000 10.000000 
Rope3_Seg02 0.000000 0.000000 0.000000 0.000000 0.000000 0.000000 10.000000 
Rope3_Seg03 0.000000 0.000000 0.000000 0.000000 0.000000 0.000000 10.000000 
Rope3_Seg04 0.000000 0.000000 0.000000 0.000000 0.000000 0.000000 10.000000 
Rope3_Seg05 0.000000 0.000000 0.000000 0.000000 0.000000 0.000000 10.000000 
Rope3_Seg06 0.000000 0.000000 0.000000 0.000000 0.000000 0.000000 10.000000 
Rope3_Seg07 0.000000 0.000000 0.000000 0.000000 0.000000 0.000000 10.000000 
Rope3_Seg08 0.000000 0.000000 0.000000 0.000000 0.000000 0.000000 10.000000 
Rope3_Seg09 0.000000 0.000000 0.000000 0.000000 0.000000 0.000000 10.000000 
R_rear_hand01 0.000000 0.000000 0.000000 0.000000 0.000000 0.000000 10.000000 
R_rear_hand02 0.000000 0.000000 0.000000 0.000000 0.000000 0.000000 10.000000 
R_rear_hand03 0.000000 0.000000 0.000000 0.000000 0.000000 0.000000 10.000000 
Rope4_Seg01 0.000000 0.000000 0.000000 0.000000 0.000000 0.000000 10.000000 
Rope4_Seg02 0.000000 0.000000 0.000000 0.000000 0.000000 0.000000 10.000000 
Rope4_Seg03 0.000000 0.000000 0.000000 0.000000 0.000000 0.000000 10.000000 
Rope4_Seg04 0.000000 0.000000 0.000000 0.000000 0.000000 0.000000 10.000000 
Rope4_Seg05 0.000000 0.000000 0.000000 0.000000 0.000000 0.000000 10.000000 
Rope4_Seg06 0.000000 0.000000 0.000000 0.000000 0.000000 0.000000 10.000000 
Rope4_Seg07 0.000000 0.000000 0.000000 0.000000 0.000000 0.000000 10.000000 
Rope4_Seg08 0.000000 0.000000 0.000000 0.000000 0.000000 0.000000 10.000000 
Rope4_Seg09 0.000000 0.000000 0.000000 0.000000 0.000000 0.000000 10.000000 
L_rear_hand01 0.000000 0.000000 0.000000 0.000000 0.000000 0.000000 10.000000 
L_rear_hand02 0.000000 0.000000 0.000000 0.000000 0.000000 0.000000 10.000000 
L_rear_hand03 0.000000 0.000000 0.000000 0.000000 0.000000 0.000000 10.000000 
#Beginning of Data. Separated by tabs
#Fr	Tx	Ty	Tz	Rx	Ry	Rz	SF
[MASTER]
26 2494.581299 2790.114258 1887.282959 0.001660 0.001660 0.001660 4191.600098
27 2492.750732 2790.114258 1885.777832 0.001660 0.001660 0.001660 4189.833008
[root]
26 75.448257 -51.398621 304.756439 -11.732582 3.055632 -112.658875 318.136353
27 76.946571 -51.398621 304.754578 -11.726507 3.066540 -112.688187 318.493256
[chest]
26 -84.512650 -34.090519 0.000000 16.022728 10.949572 152.751740 91.129311
27 -84.512650 -34.090519 0.000000 16.246208 10.952204 152.953262 91.129311
[L_mid_tent01]
26 27.299046 22.179146 -249.918701 0.569491 20.009090 81.724709 252.381683
27 27.299046 22.179146 -249.918701 0.675681 20.007734 82.024055 252.381683
[R_mid_tent01]
26 23.228794 24.509907 226.238495 169.368347 -21.544825 68.377388 228.744751
27 23.228794 24.509907 226.238495 169.470444 -21.428410 68.483330 228.744751
[spine01]
26 -0.361383 -0.195265 0.000000 0.001902 0.001376 18.250822 0.410763
27 -0.361383 -0.195265 0.000000 0.001902 0.001375 18.294230 0.410763
[Bip01_Neck]
26 165.484543 71.581718 0.000119 176.643677 -1.657967 43.431911 180.302734
27 165.484543 71.581718 0.000119 176.643677 -1.657967 43.431911 180.302734
[L_humerus]
26 -13.983130 -135.272980 -120.471481 29.827477 69.151543 143.016403 181.680161
27 -13.983130 -135.272980 -120.471481 28.823603 68.673645 142.341446 181.680161
[R_humerus]
26 -13.983309 -135.273102 125.287651 -170.014679 -67.644958 -95.133492 184.909012
27 -13.983309 -135.273102 125.287651 -169.888153 -67.872398 -95.267281 184.909012
[weapon_bone]
26 235.964890 -300.705902 0.000000 0.000000 -89.951546 -128.212341 382.234833
27 235.964890 -300.705902 0.000000 0.000000 -89.951546 -128.212341 382.234833
[Bip01_Head]
26 213.342957 185.996689 8.145572 47.346333 6.077272 -43.701916 283.154236
27 213.344757 185.991653 8.210741 47.346359 6.077404 -43.701897 283.154205
[eye_left_bone]
26 -24.626970 125.451866 -64.772606 0.000000 -90.000000 -99.840431 143.318359
27 -24.626970 125.451866 -64.772606 0.000000 -90.000000 -99.840431 143.318359
[eye_right_bone]
26 -24.626970 125.451866 64.327362 0.000000 -89.972023 80.156380 143.117676
27 -24.626970 125.451866 64.327362 0.000000 -89.965736 80.156380 143.117676
[L_forearm]
26 322.776093 0.000000 -0.000119 0.000033 0.002347 -88.395493 322.776093
27 322.776093 0.000000 -0.000119 0.000043 0.002347 -87.879250 322.776093
[L_front_hand]
26 241.149185 -0.042021 -3.300071 -32.271912 -2.597539 -5.027081 241.171753
27 241.149185 -0.042021 -3.300071 20.404514 -2.206525 -5.141401 241.171753
[L_weapon_bone]
26 156.183838 0.000000 0.000000 0.000014 0.000007 0.000001 156.183838
27 156.183838 0.000000 0.000000 0.000014 0.000007 0.000001 156.183838
[L_front_hand01_01]
26 86.095154 20.947098 -0.655860 -0.366594 -0.477154 75.385582 88.609184
27 86.095154 20.947098 -0.655860 -0.366594 -0.477154 75.385574 88.609184
[L_front_hand02_01]
26 86.935165 -11.437475 24.513514 154.399796 -59.883835 -61.369587 91.046425
27 86.935165 -11.437475 24.513514 154.399796 -59.883835 -61.369587 91.046425
[L_front_hand03_01]
26 86.637497 -14.123976 -20.424902 -153.913849 58.118130 -62.702866 90.126129
27 86.637497 -14.123976 -20.424902 -153.913864 58.118134 -62.702885 90.126129
[L_front_hand01_02]
26 71.020905 -0.000179 0.000030 0.000207 -0.002338 -100.133705 71.020905
27 71.020905 -0.000179 0.000030 0.000064 -0.002346 -93.132919 71.020905
[L_front_hand02_02]
26 71.020927 -0.000119 0.000060 0.000207 -0.002338 -100.133705 71.020927
27 71.020927 -0.000119 0.000060 0.000064 -0.002346 -93.132919 71.020927
[L_front_hand03_02]
26 71.020905 -0.000060 0.000060 0.000207 -0.002338 -100.133705 71.020905
27 71.020905 -0.000060 0.000060 0.000064 -0.002346 -93.132919 71.020905
[R_forearm]
26 322.776428 -0.000060 0.000030 0.201035 0.068381 -109.895256 322.776428
27 322.776428 -0.000060 0.000030 0.201021 0.068421 -109.918213 322.776428
[R_front_hand]
26 238.847015 -0.006795 2.210259 -2.635298 -10.645461 -26.312506 238.857239
27 238.847015 -0.006795 2.210259 -2.635298 -10.645461 -26.312506 238.857239
[R_weapon_bone]
26 155.664093 0.002503 -0.000030 0.003487 0.001180 -90.988930 155.664078
27 155.664093 0.002503 -0.000030 0.003487 0.001180 -90.988930 155.664078
[R_front_hand01_01]
26 87.624611 14.231146 22.918642 -154.633499 -59.950619 61.746044 91.683487
27 87.624611 14.231146 22.918642 -154.633499 -59.950619 61.746044 91.683487
[R_front_hand02_01]
26 89.356956 14.367283 -19.491137 154.602661 58.302849 63.744389 92.579636
27 89.356956 14.367283 -19.491137 154.602676 58.302864 63.744389 92.579636
[R_front_hand03_01]
26 87.286232 -22.307278 -0.143439 0.162155 -0.423168 -75.767921 90.091743
27 87.286232 -22.307278 -0.143439 0.162155 -0.423168 -75.767921 90.091743
[R_front_hand01_02]
26 71.020905 0.000060 0.000119 0.002323 -0.000334 106.381714 71.020905
27 71.020905 0.000060 0.000119 0.002323 -0.000334 106.381714 71.020905
[R_front_hand02_02]
26 71.020844 -0.000030 -0.000119 0.002323 -0.000334 106.381714 71.020836
27 71.020844 -0.000030 -0.000119 0.002323 -0.000334 106.381714 71.020836
[R_front_hand03_02]
26 71.020905 0.000000 0.000030 0.002323 -0.000334 106.381714 71.020905
27 71.020905 0.000000 0.000030 0.002323 -0.000334 106.381714 71.020905
[null_rope01_connect]
26 328.732483 0.000000 -0.000238 -19.329609 -26.146885 35.072655 328.732483
27 328.732483 0.000000 -0.000238 -19.354979 -26.127420 34.823059 328.732483
[Rope1_Seg01]
26 -0.000010 -0.000105 0.000114 -36.574306 49.222946 133.804916 0.000156
27 -0.000010 -0.000108 0.000113 -36.052830 48.857082 134.258652 0.000156
[Rope1_Seg02]
26 139.999863 -0.000179 0.000000 -9.003126 20.011637 -13.529342 139.999863
27 139.999863 -0.000179 0.000000 -9.449518 20.611214 -13.857102 139.999863
[Rope1_Seg03]
26 139.999924 0.000060 -0.000060 -15.675745 15.034665 -5.906794 139.999924
27 139.999924 0.000060 -0.000060 -16.152376 15.122069 -5.703797 139.999924
[Rope1_Seg04]
26 139.999924 -0.000060 -0.000119 -15.393713 8.031517 -0.420162 139.999924
27 139.999924 -0.000060 -0.000119 -15.300794 7.918238 -0.328318 139.999924
[Rope1_Seg05]
26 139.999832 0.000119 -0.000060 -26.174452 10.062778 -2.180235 139.999832
27 139.999832 0.000119 -0.000060 -25.971968 9.999401 -2.055120 139.999832
[Rope1_Seg06]
26 139.999954 0.000119 -0.000060 -87.204163 22.167328 2.618954 139.999954
27 139.999954 0.000119 -0.000060 -86.246414 22.212332 2.840982 139.999954
[Rope1_Seg07]
26 139.999985 0.000060 0.000000 -18.705729 -2.055804 20.725700 139.999985
27 139.999985 0.000060 0.000000 -18.857214 -1.946727 20.961754 139.999985
[Rope1_Seg09]
26 121.602913 0.000119 -0.000089 -89.793175 -1.359789 0.847147 121.602913
27 121.602913 0.000119 -0.000089 -89.793175 -1.359789 0.847147 121.602913
[L_mid_hand01]
26 103.859421 1.038730 8.195221 130.544373 -67.584534 -38.866940 104.187431
27 103.859421 1.038730 8.195221 130.544373 -67.584526 -38.866943 104.187431
[L_mid_hand02]
26 105.572853 -4.139662 -10.864139 -168.923172 43.409317 -73.498909 106.211075
27 105.572853 -4.139662 -10.864139 -168.923172 43.409309 -73.498894 106.211075
[L_mid_hand03]
26 104.641464 17.579376 -3.913581 -6.012627 17.808174 74.893669 106.179977
27 104.641464 17.579376 -3.913581 -6.012628 17.808178 74.893669 106.179977
[null_rope02_connect]
26 328.732849 0.000179 -0.000119 -164.723907 1.578038 -44.385574 328.732849
27 328.732849 0.000179 -0.000119 -164.917114 1.540104 -44.293671 328.732849
[Rope2_Seg01]
26 0.000043 0.000191 0.000000 -13.170867 -70.724983 177.253143 0.000196
27 0.000042 0.000192 0.000000 -14.369657 -71.131363 178.529480 0.000197
[Rope2_Seg02]
26 139.999741 -0.000060 -0.000119 4.979803 -5.639520 -47.361786 139.999756
27 139.999741 -0.000060 -0.000119 4.190262 -5.444993 -45.896328 139.999756
[Rope2_Seg03]
26 140.000107 0.000030 0.000000 15.381372 -7.084273 -47.995613 140.000107
27 140.000107 0.000030 0.000000 15.260687 -6.650373 -49.096981 140.000107
[Rope2_Seg04]
26 139.999802 0.000000 -0.000060 4.130566 -4.426374 -10.940870 139.999802
27 139.999802 0.000000 -0.000060 4.456071 -4.523719 -11.690364 139.999802
[Rope2_Seg05]
26 139.999985 -0.000060 0.000119 0.563524 -1.400888 -1.452008 139.999985
27 139.999985 -0.000060 0.000119 0.610171 -1.474021 -1.544496 139.999985
[Rope2_Seg06]
26 139.999893 -0.000030 -0.000119 -0.618747 -0.349513 2.298546 139.999893
27 139.999893 -0.000030 -0.000119 -0.630686 -0.440489 2.353504 139.999893
[Rope2_Seg07]
26 139.999893 0.000060 -0.000060 -0.231752 -0.808965 1.068315 139.999893
27 139.999893 0.000060 -0.000060 -0.266364 -0.859403 1.223659 139.999893
[Rope2_Seg09]
26 121.338966 0.000089 -0.000060 33.793236 -1.359788 -0.847141 121.338966
27 121.338966 0.000089 -0.000060 33.793236 -1.359788 -0.847141 121.338966
[R_mid_hand01]
26 104.680779 11.144459 -10.335981 -16.857140 45.048347 69.553452 105.778534
27 104.680779 11.144459 -10.335981 -16.212063 45.237240 70.462845 105.778534
[R_mid_hand02]
26 104.070427 2.443552 8.231699 50.118153 -67.241348 38.150028 104.424065
27 104.070427 2.443552 8.231699 49.067368 -67.749771 39.286453 104.424065
[R_mid_hand03]
26 106.028137 -11.221827 -5.996406 -176.912491 15.518663 -75.892738 106.788818
27 106.028137 -11.221827 -5.996406 -177.101105 15.551026 -76.585571 106.788818
[spine02]
26 129.756927 0.001550 0.000119 0.541249 -4.023425 -15.549616 129.756927
27 129.756927 0.001550 0.000119 0.543398 -4.023133 -15.575913 129.756927
[spine03]
26 78.614098 0.081482 -4.899014 2.005617 3.776158 18.106569 78.766640
27 78.614098 0.081482 -4.899014 2.007297 3.774568 18.132645 78.766640
[pelvis]
26 169.435242 0.051022 0.000000 -0.049376 -0.182618 10.190159 169.435257
27 169.435242 0.051022 0.000000 -0.048930 -0.182736 9.910414 169.435257
[null_rope03_connect]
26 -1.257226 -2.466202 137.391083 -6.914490 -8.402677 81.900620 137.418976
27 -1.257226 -2.466202 137.391083 -6.926417 -8.388935 82.179916 137.418976
[null_rope04_connect]
26 -1.259640 -2.480268 -137.844437 -6.914490 -8.402677 81.900620 137.872513
27 -1.259640 -2.480268 -137.844437 -6.926417 -8.388935 82.179916 137.872513
[Rope3_Seg01]
26 -0.000024 -0.000105 0.000000 21.051817 -46.332096 -76.555351 0.000108
27 -0.000024 -0.000108 0.000000 21.326279 -46.959091 -76.779533 0.000110
[Rope3_Seg02]
26 139.999924 -0.000119 0.000060 0.780114 -1.869563 10.087831 139.999924
27 139.999924 -0.000119 0.000060 0.805673 -1.694978 9.721015 139.999924
[Rope3_Seg03]
26 139.999924 -0.000119 0.000119 -13.041562 -7.755728 48.889854 139.999924
27 139.999924 -0.000119 0.000119 -11.976563 -7.006727 48.136669 139.999924
[Rope3_Seg04]
26 139.999924 0.000119 0.000000 -39.969982 -12.217648 41.905098 139.999924
27 139.999924 0.000119 0.000000 -41.533802 -12.043017 43.556793 139.999924
[Rope3_Seg05]
26 139.999924 -0.000238 0.000060 3.613518 2.907883 -1.290109 139.999924
27 139.999924 -0.000238 0.000060 4.144790 3.154789 -1.775441 139.999924
[Rope3_Seg06]
26 139.999893 -0.000119 -0.000060 -0.512558 -0.554313 0.650393 139.999893
27 139.999893 -0.000119 -0.000060 -0.426214 -0.525486 0.552595 139.999893
[Rope3_Seg07]
26 139.999771 0.000060 -0.000119 -0.055534 -0.337759 0.387588 139.999771
27 139.999771 0.000060 -0.000119 0.000744 -0.319814 0.328074 139.999771
[Rope3_Seg08]
26 139.999985 -0.000060 0.000000 0.202803 -0.199042 0.226337 139.999985
27 139.999985 -0.000060 0.000000 0.231308 -0.191614 0.194155 139.999985
[Rope3_Seg09]
26 90.185997 -0.000179 -0.000060 89.793228 -1.359877 -0.847183 90.185997
27 90.185997 -0.000179 -0.000060 89.793228 -1.359877 -0.847183 90.185997
[R_rear_hand01]
26 103.366196 -6.073594 -10.757982 -177.431534 24.540592 -73.234825 104.101845
27 103.366196 -6.073594 -10.757982 -177.714203 24.565960 -73.910950 104.101845
[R_rear_hand02]
26 100.509819 12.039542 -7.992327 -13.326717 36.728550 71.413712 101.543350
27 100.509819 12.039542 -7.992327 -12.874826 36.868481 72.167213 101.543350
[R_rear_hand03]
26 101.539970 5.215704 5.435467 72.062195 -71.230423 20.902857 101.819031
27 101.539970 5.215704 5.435467 71.484596 -71.816643 21.513828 101.819031
[Rope4_Seg01]
26 0.000010 0.000038 -0.000114 -111.851006 69.268028 -105.391426 0.000121
27 0.000010 0.000038 -0.000114 -111.560341 69.225441 -105.092018 0.000121
[Rope4_Seg02]
26 139.999985 0.000060 0.000119 -1.773995 -8.194609 3.650162 139.999985
27 139.999985 0.000060 0.000119 -1.766647 -8.210520 3.664799 139.999985
[Rope4_Seg03]
26 139.999924 0.000000 -0.000238 -1.624959 -13.999516 5.874540 139.999924
27 139.999924 0.000000 -0.000238 -1.610895 -14.061490 5.908991 139.999924
[Rope4_Seg04]
26 139.999985 0.000000 0.000119 0.797263 -23.814260 11.486755 139.999985
27 139.999985 0.000000 0.000119 0.850815 -23.966429 11.642765 139.999985
[Rope4_Seg05]
26 139.999802 -0.000060 -0.000119 7.703165 -23.254076 13.038977 139.999802
27 139.999802 -0.000060 -0.000119 7.802535 -23.215750 13.078391 139.999802
[Rope4_Seg06]
26 139.999924 0.000000 0.000060 4.978513 -10.612469 2.519818 139.999924
27 139.999924 0.000000 0.000060 4.964298 -10.625361 2.428586 139.999924
[Rope4_Seg07]
26 139.999802 0.000000 0.000000 0.882950 -6.881859 -2.499269 139.999802
27 139.999802 0.000000 0.000000 0.941018 -6.972408 -2.483806 139.999802
[Rope4_Seg08]
26 139.999924 0.000000 0.000119 1.862277 -5.140601 0.683039 139.999924
27 139.999924 0.000000 0.000119 1.949216 -5.146965 0.731029 139.999924
[Rope4_Seg09]
26 90.185791 0.000060 0.000060 -135.617828 2.228885 0.850567 90.185791
27 90.185791 0.000060 0.000060 -135.617828 2.228885 0.850567 90.185791
[L_rear_hand01]
26 101.696655 -8.392275 -7.654577 -12.874831 -36.868481 107.832764 102.329041
27 101.696655 -8.392275 -7.654577 -12.874831 -36.868481 107.832764 102.329041
[L_rear_hand02]
26 102.726799 -1.568258 5.773216 71.484627 71.816643 158.486160 102.900848
27 102.726799 -1.568258 5.773216 71.484627 71.816643 158.486176 102.900848
[L_rear_hand03]
26 104.552910 9.721220 -10.420293 -177.714203 -24.565966 -106.089035 105.519653
27 104.552910 9.721220 -10.420293 -177.714203 -24.565960 -106.089035 105.519653
